<svg height="512pt" viewBox="0 0 512 512.001" width="512pt" xmlns="http://www.w3.org/2000/svg"><path d="m512 256c0 141.386719-114.613281 256-256 256-141.382812 0-256-114.613281-256-256s114.617188-256 256-256c141.386719 0 256 114.613281 256 256zm0 0" fill="#fad818"/><path d="m511.9375 260.875-99.375-99.75c-3.648438-3.78125-3.609375-2.6875-8.3125-5.125l-44.035156-44.222656c-8.832032-9.703125-290.054688 181.878906-281.265625 190.621094l42.71875 42.269531-3.664063 38.195312 128.960938 128.960938c3 .105469 6.007812.175781 9.035156.175781 139.753906 0 253.335938-111.992188 255.9375-251.125zm0 0" fill="#f4b913"/><path d="m166.210938 146.328125h211.695312c26.515625 0 48.207031 21.691406 48.207031 48.207031v124.113282c0 26.511718-21.691406 48.207031-48.207031 48.207031h-5.097656v66.378906l-65-66.378906h-141.597656c-26.515626 0-48.207032-21.695313-48.207032-48.207031v-124.113282c0-26.515625 21.691406-48.207031 48.207032-48.207031zm0 0" fill="#57545c"/><path d="m426.109375 194.53125v124.117188c0 26.511718-21.6875 48.203124-48.199219 48.203124h-5.101562v66.386719l-65-66.386719h-38.359375v-220.523437h108.460937c26.511719 0 48.199219 21.691406 48.199219 48.203125zm0 0" fill="#3a383f"/><path d="m324.601562 95.953125h-211.699218c-26.511719 0-48.207032 21.695313-48.207032 48.207031v124.117188c0 26.511718 21.695313 48.207031 48.207032 48.207031h5.101562v66.378906l64.996094-66.378906h141.601562c26.511719 0 48.207032-21.695313 48.207032-48.207031v-124.117188c0-26.511718-21.695313-48.207031-48.207032-48.207031zm0 0" fill="#fff"/><path d="m372.808594 144.160156v124.121094c0 26.507812-21.699219 48.199219-48.207032 48.199219h-114.011718v-220.53125h114.011718c26.507813 0 48.207032 21.699219 48.207032 48.210937zm0 0" fill="#fff5ca"/><path d="m100.664062 191.59375h47.523438v30h-47.523438zm0 0" fill="#797880"/><path d="m164.917969 191.59375h91.34375v30h-91.34375zm0 0" fill="#797880"/><path d="m210.589844 191.589844h45.671875v30h-45.671875zm0 0" fill="#57545c"/><path d="m210.589844 144.1875h45.671875v30h-45.671875zm0 0" fill="#57545c"/><path d="m100.664062 144.1875h91.339844v30h-91.339844zm0 0" fill="#797880"/><path d="m210.589844 239h45.671875v30h-45.671875zm0 0" fill="#57545c"/><path d="m100.664062 239h91.339844v30h-91.339844zm0 0" fill="#797880"/><path d="m284.730469 228.554688c0-5.671876.925781-10.765626 2.777343-15.277344 1.847657-4.511719 5.667969-8.449219 11.457032-11.804688 1.734375-1.042968 3.875-2.226562 6.421875-3.558594 2.542969-1.328124 5.035156-2.921874 7.464843-4.773437 2.429688-1.851563 4.484376-4.019531 6.160157-6.507813 1.679687-2.488281 2.519531-5.351562 2.519531-8.59375 0-2.429687-.464844-4.570312-1.390625-6.425781-.925781-1.847656-2.140625-3.410156-3.644531-4.683593-1.503906-1.273438-3.273438-2.230469-5.292969-2.867188-2.027344-.632812-4.082031-.953125-6.164063-.953125-2.546874 0-4.859374.433594-6.945312 1.300781-2.082031.867188-3.964844 1.96875-5.640625 3.300782-1.679687 1.328124-3.183594 2.835937-4.511719 4.511718-1.332031 1.679688-2.460937 3.269532-3.386718 4.773438l-15.101563-10.414063c1.503906-3.585937 3.5-6.769531 5.988281-9.550781 2.488282-2.773438 5.324219-5.121094 8.507813-7.027344 3.179687-1.910156 6.621093-3.355468 10.328125-4.339844 3.703125-.984374 7.519531-1.476562 11.457031-1.476562 4.398437 0 8.738281.636719 13.019531 1.910156 4.28125 1.273438 8.128906 3.296875 11.542969 6.074219s6.191406 6.335937 8.332031 10.675781 3.214844 9.523438 3.214844 15.539063c0 3.703125-.433594 6.972656-1.304688 9.804687-.867187 2.839844-2.113281 5.414063-3.730468 7.726563-1.621094 2.316406-3.53125 4.398437-5.726563 6.25-2.203125 1.851562-4.6875 3.644531-7.464843 5.382812-2.316407 1.386719-4.632813 2.71875-6.945313 3.988281-2.316406 1.277344-4.425781 2.691407-6.335937 4.253907-1.910157 1.5625-3.472657 3.359375-4.6875 5.382812-1.214844 2.023438-1.820313 4.484375-1.820313 7.378907zm.347656 40.445312v-23.953125h19.265625v23.953125zm0 0" fill="#ff4e0a"/></svg>