<svg id="Layer_1" height="512" viewBox="0 0 128 128" width="512" xmlns="http://www.w3.org/2000/svg" xmlns:xlink="http://www.w3.org/1999/xlink" data-name="Layer 1"><linearGradient id="linear-gradient" gradientUnits="userSpaceOnUse" x1="111.718" x2="16.085" y1="105.626" y2="9.994"><stop offset="0" stop-color="#5f69e2"/><stop offset="1" stop-color="#00b5bc"/></linearGradient><path d="m118.75 57.791v33.5a1.75 1.75 0 0 1 -3.5 0v-31.75h-52.156v8.918a1.75 1.75 0 0 1 -2.988 1.241l-10.315-10.319h-18.147v2.41a1.75 1.75 0 1 1 -3.5 0v-2.41h-17.144a1.75 1.75 0 0 1 -1.75-1.75v-40.077a1.75 1.75 0 0 1 1.75-1.754h7.75a1.75 1.75 0 0 1 0 3.5h-6v36.581h37.766a1.75 1.75 0 0 1 1.237.513l7.841 7.841v-6.6a1.75 1.75 0 0 1 1.75-1.75h8.656v-36.585h-36.832a1.75 1.75 0 0 1 0-3.5h38.582a1.75 1.75 0 0 1 1.75 1.75v15.825h2.25a1.75 1.75 0 0 1 0 3.5h-2.25v19.166h22.62v-2.25a1.75 1.75 0 0 1 3.5 0v2.25h17.38a1.75 1.75 0 0 1 1.75 1.75zm-1.75 38.328h-39.516a1.75 1.75 0 0 0 -1.237.513l-7.841 7.84v-6.6a1.75 1.75 0 0 0 -1.75-1.75h-8.656v-22.497a1.75 1.75 0 0 0 -3.5 0v5.081h-2.486a1.75 1.75 0 0 0 0 3.5h2.486v15.663a1.75 1.75 0 0 0 1.75 1.75h8.656v9.081a1.75 1.75 0 0 0 2.987 1.237l10.316-10.318h38.791a1.75 1.75 0 1 0 0-3.5zm-91.5-76.819h.832a1.75 1.75 0 0 0 0-3.5h-.832a1.75 1.75 0 0 0 0 3.5zm24.482 22.381a9.509 9.509 0 0 1 -1.753 2.919 13.241 13.241 0 0 0 3.245 1.7l-1.492 2.861a9.243 9.243 0 0 1 -1.793-.753q-.192-.1-2.7-1.78a10.78 10.78 0 0 1 -4.367.862 9.587 9.587 0 0 1 -7.249-2.724q-2.622-2.724-2.622-7.653t2.629-7.646a9.436 9.436 0 0 1 7.133-2.731 9.338 9.338 0 0 1 7.078 2.731q2.615 2.731 2.615 7.646a13.207 13.207 0 0 1 -.724 4.568zm-3.45-4.573a7.606 7.606 0 0 0 -1.532-5.195 5.542 5.542 0 0 0 -8.029.007 7.587 7.587 0 0 0 -1.54 5.189 7.763 7.763 0 0 0 1.54 5.264 4.97 4.97 0 0 0 3.895 1.746 4.753 4.753 0 0 0 1.656-.287 11.717 11.717 0 0 0 -2.505-1.26l1.136-2.314a13.764 13.764 0 0 1 3.82 2.054 6.061 6.061 0 0 0 1.171-2.218 10.4 10.4 0 0 0 .388-2.986zm37.155 46.863-1.657 4.559h-4.3l7.817-20.07h4.285l8.038 20.07h-4.408l-1.752-4.559zm1.246-3.382h5.476l-2.766-7.448zm-3.143-43.714h6.04a1.75 1.75 0 0 0 0-3.5h-6.04a1.75 1.75 0 0 0 0 3.5zm12.081 0h2.25v2.25a1.75 1.75 0 1 0 3.5 0v-4a1.75 1.75 0 0 0 -1.75-1.75h-4a1.75 1.75 0 0 0 0 3.5zm4 5.389a1.75 1.75 0 0 0 -1.75 1.75v4.886a1.75 1.75 0 0 0 3.5 0v-4.886a1.75 1.75 0 0 0 -1.751-1.75zm-51.9 36.442h-6.04a1.75 1.75 0 1 0 0 3.5h6.04a1.75 1.75 0 0 0 0-3.5zm-12.08 0h-2.25v-2.25a1.75 1.75 0 0 0 -3.5 0v4a1.75 1.75 0 0 0 1.75 1.75h4a1.75 1.75 0 0 0 0-3.5zm-4-5.389a1.75 1.75 0 0 0 1.75-1.75v-4.888a1.75 1.75 0 0 0 -3.5 0v4.889a1.75 1.75 0 0 0 1.753 1.749z" fill="url(#linear-gradient)"/></svg>