<svg id="Layer_1" height="512" viewBox="0 0 128 128" width="512" xmlns="http://www.w3.org/2000/svg" data-name="Layer 1"><path d="m75.75 36.875h-4a1.75 1.75 0 0 1 0-3.5h4a1.75 1.75 0 0 1 0 3.5z" fill="#ff9e21"/><path d="m87.83 36.875h-6.04a1.75 1.75 0 0 1 0-3.5h6.04a1.75 1.75 0 0 1 0 3.5z" fill="#ff9e21"/><path d="m97.871 40.875a1.75 1.75 0 0 1 -1.75-1.75v-2.25h-2.25a1.75 1.75 0 0 1 0-3.5h4a1.75 1.75 0 0 1 1.75 1.75v4a1.75 1.75 0 0 1 -1.75 1.75z" fill="#ff9e21"/><path d="m97.87 50.652a1.75 1.75 0 0 1 -1.75-1.75v-4.888a1.75 1.75 0 0 1 3.5 0v4.886a1.75 1.75 0 0 1 -1.75 1.752z" fill="#ff9e21"/><path d="m97.87 59.541a1.75 1.75 0 0 1 -1.75-1.75v-4a1.75 1.75 0 0 1 3.5 0v4a1.75 1.75 0 0 1 -1.75 1.75z" fill="#ff9e21"/><path d="m56.014 82.206h-4a1.75 1.75 0 0 1 0-3.5h4a1.75 1.75 0 1 1 0 3.5z" fill="#00b5bc"/><path d="m45.974 82.206h-6.04a1.75 1.75 0 1 1 0-3.5h6.04a1.75 1.75 0 0 1 0 3.5z" fill="#00b5bc"/><path d="m33.894 82.206h-4a1.75 1.75 0 0 1 -1.75-1.75v-4a1.75 1.75 0 0 1 3.5 0v2.25h2.25a1.75 1.75 0 0 1 0 3.5z" fill="#00b5bc"/><path d="m29.894 73.317a1.75 1.75 0 0 1 -1.75-1.75v-4.888a1.75 1.75 0 0 1 3.5 0v4.889a1.75 1.75 0 0 1 -1.75 1.749z" fill="#00b5bc"/><path d="m29.894 63.541a1.75 1.75 0 0 1 -1.75-1.75v-4a1.75 1.75 0 0 1 3.5 0v4a1.75 1.75 0 0 1 -1.75 1.75z" fill="#00b5bc"/><path d="m117 57.791h-60.75v40.078h10.406v10.828l10.828-10.828h39.516z" fill="#00b5bc"/><path d="m11 17.553h60.75v40.078h-10.406v10.828l-10.828-10.828h-39.516z" fill="#ffd322"/><path d="m41.375 57.631h9.141l10.828 10.828v-10.828h10.406v-40.078h-30.375z" fill="#ff9e21"/><path d="m48.229 44.6a13.242 13.242 0 0 0 3.245 1.7l-1.492 2.861a9.241 9.241 0 0 1 -1.793-.753q-.192-.1-2.7-1.78a10.781 10.781 0 0 1 -4.367.862 9.587 9.587 0 0 1 -7.249-2.724q-2.622-2.724-2.622-7.653t2.629-7.646a9.436 9.436 0 0 1 7.133-2.731 9.338 9.338 0 0 1 7.078 2.731q2.615 2.731 2.615 7.646a13.208 13.208 0 0 1 -.726 4.573 9.51 9.51 0 0 1 -1.751 2.914zm-3.258-2.286a6.061 6.061 0 0 0 1.171-2.218 10.4 10.4 0 0 0 .39-2.985 7.606 7.606 0 0 0 -1.532-5.198 5.542 5.542 0 0 0 -8.029.007 7.587 7.587 0 0 0 -1.54 5.189 7.763 7.763 0 0 0 1.54 5.264 4.97 4.97 0 0 0 3.895 1.746 4.753 4.753 0 0 0 1.657-.287 11.721 11.721 0 0 0 -2.505-1.26l1.136-2.314a13.765 13.765 0 0 1 3.817 2.053z" fill="#724435"/><path d="m87.801 57.791h29.199v40.078h-29.199z" fill="#0b789c"/><path d="m97.87 88.53h-4.408l-1.752-4.559h-8.023l-1.657 4.559h-4.3l7.817-20.07h4.285zm-7.461-7.94-2.765-7.448-2.711 7.448z" fill="#724435"/><g fill="#500000"><path d="m117 56.041h-17.38v-2.25a1.75 1.75 0 0 0 -3.5 0v2.25h-22.62v-19.166h2.25a1.75 1.75 0 0 0 0-3.5h-2.25v-15.821a1.75 1.75 0 0 0 -1.75-1.75h-38.582a1.75 1.75 0 0 0 0 3.5h36.832v36.577h-8.656a1.75 1.75 0 0 0 -1.75 1.75v6.6l-7.841-7.841a1.75 1.75 0 0 0 -1.237-.513h-37.766v-36.577h6a1.75 1.75 0 0 0 0-3.5h-7.75a1.75 1.75 0 0 0 -1.75 1.75v40.081a1.75 1.75 0 0 0 1.75 1.75h17.144v2.41a1.75 1.75 0 1 0 3.5 0v-2.41h18.147l10.315 10.319a1.75 1.75 0 0 0 2.987-1.237v-8.922h52.157v31.751a1.75 1.75 0 0 0 3.5 0v-33.5a1.75 1.75 0 0 0 -1.75-1.751z"/><path d="m117 96.119h-39.516a1.75 1.75 0 0 0 -1.237.513l-7.841 7.84v-6.6a1.75 1.75 0 0 0 -1.75-1.75h-8.656v-22.497a1.75 1.75 0 0 0 -3.5 0v5.081h-2.486a1.75 1.75 0 0 0 0 3.5h2.486v15.663a1.75 1.75 0 0 0 1.75 1.75h8.656v9.081a1.75 1.75 0 0 0 2.987 1.237l10.316-10.318h38.791a1.75 1.75 0 1 0 0-3.5z"/><path d="m25.5 19.3h.832a1.75 1.75 0 0 0 0-3.5h-.832a1.75 1.75 0 0 0 0 3.5z"/><path d="m50.707 37.108q0-4.915-2.615-7.646a9.338 9.338 0 0 0 -7.078-2.731 9.436 9.436 0 0 0 -7.133 2.731q-2.629 2.731-2.629 7.646t2.622 7.653a9.587 9.587 0 0 0 7.249 2.724 10.78 10.78 0 0 0 4.367-.862q2.505 1.684 2.7 1.78a9.243 9.243 0 0 0 1.793.753l1.492-2.861a13.241 13.241 0 0 1 -3.245-1.7 9.509 9.509 0 0 0 1.752-2.916 13.207 13.207 0 0 0 .725-4.571zm-4.566 2.985a6.061 6.061 0 0 1 -1.171 2.218 13.764 13.764 0 0 0 -3.82-2.054l-1.136 2.314a11.717 11.717 0 0 1 2.505 1.26 4.753 4.753 0 0 1 -1.656.287 4.97 4.97 0 0 1 -3.895-1.746 7.763 7.763 0 0 1 -1.54-5.264 7.587 7.587 0 0 1 1.54-5.189 5.542 5.542 0 0 1 8.032-.006 7.606 7.606 0 0 1 1.533 5.2 10.4 10.4 0 0 1 -.392 2.98z"/><path d="m91.71 83.971 1.752 4.559h4.408l-8.036-20.07h-4.285l-7.817 20.07h4.3l1.657-4.559zm-4.067-10.829 2.766 7.448h-5.476z"/><path d="m81.79 36.875h6.04a1.75 1.75 0 0 0 0-3.5h-6.04a1.75 1.75 0 0 0 0 3.5z"/><path d="m93.871 36.875h2.25v2.25a1.75 1.75 0 1 0 3.5 0v-4a1.75 1.75 0 0 0 -1.75-1.75h-4a1.75 1.75 0 0 0 0 3.5z"/><path d="m97.87 42.264a1.75 1.75 0 0 0 -1.75 1.75v4.886a1.75 1.75 0 0 0 3.5 0v-4.886a1.75 1.75 0 0 0 -1.75-1.75z"/><path d="m45.974 78.706h-6.04a1.75 1.75 0 1 0 0 3.5h6.04a1.75 1.75 0 0 0 0-3.5z"/><path d="m33.894 78.706h-2.25v-2.25a1.75 1.75 0 0 0 -3.5 0v4a1.75 1.75 0 0 0 1.75 1.75h4a1.75 1.75 0 0 0 0-3.5z"/><path d="m29.894 73.317a1.75 1.75 0 0 0 1.75-1.75v-4.888a1.75 1.75 0 0 0 -3.5 0v4.889a1.75 1.75 0 0 0 1.75 1.749z"/></g></svg>